# xmcd CD database file
# Copyright (C) 1996 Ti Kan
#
# Track frame offsets:
# 	182
# 	18845
# 	34495
# 	54017
# 	67742
# 	78170
# 	104092
# 	118600
# 	135532
# 	158162
# 	170795
# 	193140
# 	204852
# 	220235
# 	246982
#
# Disc length: 3539 seconds
#
# Revision: 1
# Processed by: cddbd v1.4b41PL1 Copyright (c) Steve Scherf et al.
# Submitted via: DiscPlay 3.4.1
#
DISCID=cc0dd10f
DTITLE=Tony Mc Phee - Slide T.S. Slide
DYEAR=1900
DGENRE=
TTITLE0=Reformed Man
TTITLE1=Mean Disposition
TTITLE2=Slide To Slide
TTITLE3=From A Pawn To A King
TTITLE4=Tell Me Baby
TTITLE5=Hooker and The Hogs
TTITLE6=Someday, Baby
TTITLE7=Diving Duck
TTITLE8=No Place To Go
TTITLE9=Me and The Devil
TTITLE10=Death Letter
TTITLE11=Can't Be Satisfied
TTITLE12=Still A Fool
TTITLE13=Write Me A Few Short Lines
TTITLE14=Down In The Bottom
EXTD=
EXTT0=
EXTT1=
EXTT2=
EXTT3=
EXTT4=
EXTT5=
EXTT6=
EXTT7=
EXTT8=
EXTT9=
EXTT10=
EXTT11=
EXTT12=
EXTT13=
EXTT14=
PLAYORDER=
